<svg xmlns="http://www.w3.org/2000/svg" viewBox="0 0 100 100">
  <defs><linearGradient id="g" x1="0" y1="0" x2="0" y2="1"><stop offset="0" stop-color="#40a0ff"/><stop offset="1" stop-color="#0066dd"/></linearGradient><clipPath id="p"><path d="M33 20h25l12 12v45a3 3 0 0 1-3 3H33a3 3 0 0 1-3-3V23a3 3 0 0 1 3-3z"/></clipPath></defs>
  <rect x="3" y="3" width="94" height="94" rx="22" fill="url(#g)"/>
  <path d="M33 20h25l12 12v45a3 3 0 0 1-3 3H33a3 3 0 0 1-3-3V23a3 3 0 0 1 3-3z" fill="#fff"/>
  <path d="M58 20v12h12z" fill="#d6e4f7"/>
  <g fill="#c8d6ea"><rect x="36" y="36" width="26" height="3.5" rx="1.7"/><rect x="36" y="43" width="24" height="3.5" rx="1.7"/><rect x="36" y="66" width="26" height="3.5" rx="1.7"/><rect x="36" y="73" width="16" height="3.5" rx="1.7"/></g>
  <rect x="20" y="56.5" width="60" height="3" rx="1.5" fill="#fff"/>
  <rect x="20" y="56.5" width="60" height="3" rx="1.5" fill="#0a84ff" clip-path="url(#p)"/>
</svg>
